<?xml version="1.0" standalone="no"?>
<!DOCTYPE svg PUBLIC "-//W3C//DTD SVG 20010904//EN"
 "http://www.w3.org/TR/2001/REC-SVG-20010904/DTD/svg10.dtd">
<svg version="1.0" xmlns="http://www.w3.org/2000/svg"
 width="512.000000pt" height="512.000000pt" viewBox="0 0 512.000000 512.000000"
 preserveAspectRatio="xMidYMid meet">
<metadata>
Created by potrace 1.14, written by Peter Selinger 2001-2017
</metadata>
<g transform="translate(0.000000,512.000000) scale(0.100000,-0.100000)"
fill="#000000" stroke="none">
<path d="M3371 4571 c-57 -38 -98 -101 -106 -165 -8 -55 -33 -101 -73 -130
-34 -26 -126 -25 -212 3 -131 42 -423 69 -550 51 -33 -5 -35 -4 -38 28 -3 33
-14 38 -59 26 -18 -5 -23 -14 -23 -39 0 -32 0 -32 -62 -39 -64 -8 -257 -50
-293 -64 -11 -5 -60 -23 -110 -40 -235 -81 -465 -207 -642 -353 -41 -33 -73
-62 -71 -64 3 -2 52 8 268 56 276 61 470 87 648 88 112 1 121 6 102 55 -15 39
2 56 56 56 l43 0 6 -55 7 -55 52 0 c72 0 95 -9 102 -36 6 -24 21 -29 62 -18
21 6 22 10 16 69 l-6 62 68 6 c130 13 119 19 132 -79 6 -48 9 -91 6 -95 -3 -5
-22 -9 -43 -9 -21 0 -52 -5 -70 -11 l-31 -11 6 -67 c10 -100 11 -96 -36 -122
-38 -22 -41 -26 -38 -63 l3 -40 -54 -8 c-37 -6 -57 -5 -61 3 -5 8 -16 6 -38
-5 -39 -20 -52 -20 -52 0 0 12 -6 15 -22 10 -13 -3 -33 -6 -46 -6 -20 0 -22
-3 -16 -41 6 -34 3 -42 -15 -55 -13 -10 -21 -26 -21 -45 0 -27 -3 -29 -35 -29
-19 0 -35 5 -35 11 0 5 -10 3 -22 -5 -12 -9 -35 -16 -50 -16 -21 0 -28 -5 -28
-20 0 -11 -6 -20 -12 -20 -7 0 -24 -9 -38 -20 -33 -26 -36 -25 -48 8 -9 26
-12 27 -62 23 l-53 -3 6 -63 c3 -48 1 -65 -9 -69 -7 -3 -45 -26 -84 -52 l-72
-47 3 -68 c2 -37 1 -70 -1 -72 -3 -2 -42 -8 -87 -11 -79 -7 -83 -6 -83 13 0
25 -13 27 -34 6 -21 -21 -24 -19 -32 20 -5 31 -10 35 -35 35 -33 0 -44 -18
-35 -55 4 -17 13 -25 29 -25 22 -1 22 -1 -3 -21 -14 -11 -68 -52 -120 -90 -52
-38 -100 -73 -107 -79 -7 -5 -15 -10 -19 -10 -4 0 -15 -7 -25 -16 -21 -19 -39
-11 -39 17 0 17 -3 18 -20 9 -12 -6 -33 -10 -48 -8 -24 3 -27 8 -30 46 -3 41
-4 42 -40 41 -72 -2 -217 -25 -215 -35 1 -5 5 -53 9 -107 7 -95 6 -97 -15 -97
-19 0 -21 -6 -21 -50 0 -45 2 -50 23 -50 48 0 67 11 67 40 0 23 5 29 31 34 17
3 48 6 68 6 l36 -1 -30 -26 c-187 -163 -256 -241 -315 -358 -115 -224 -144
-538 -64 -685 l19 -35 6 55 c9 84 38 213 49 224 5 5 10 17 10 25 0 18 62 155
72 159 5 2 8 8 8 14 0 10 98 163 127 197 65 79 244 254 313 304 244 182 486
318 865 487 22 9 56 24 75 33 20 9 71 30 115 47 43 18 86 36 94 41 9 4 44 19
79 33 93 39 183 76 217 91 54 23 149 66 191 86 23 10 44 19 48 19 4 0 33 12
64 26 98 45 120 54 127 54 3 0 31 11 61 25 30 14 58 25 62 25 7 0 48 21 143
74 19 10 54 35 79 55 60 47 230 214 230 225 0 6 9 19 19 30 56 60 129 243 151
381 11 67 46 165 59 165 3 0 12 4 20 9 11 7 8 16 -13 47 -14 21 -26 42 -26 46
0 12 -68 115 -101 153 l-31 35 -92 0 c-84 0 -95 -2 -135 -29z"/>
<path d="M2138 4513 c-29 -5 -35 -22 -21 -72 5 -21 10 -23 45 -18 22 3 42 8
45 10 3 3 2 24 -2 46 -7 43 -8 43 -67 34z"/>
<path d="M2540 4500 c0 -5 5 -10 10 -10 6 0 10 5 10 10 0 6 -4 10 -10 10 -5 0
-10 -4 -10 -10z"/>
<path d="M570 4450 c0 -5 7 -10 15 -10 8 0 15 5 15 10 0 6 -7 10 -15 10 -8 0
-15 -4 -15 -10z"/>
<path d="M1150 4275 c0 -20 5 -25 25 -25 20 0 25 5 25 25 0 20 -5 25 -25 25
-20 0 -25 -5 -25 -25z"/>
<path d="M1664 4244 c3 -9 6 -20 6 -26 0 -21 45 -3 48 20 3 19 -1 22 -28 22
-25 0 -31 -3 -26 -16z"/>
<path d="M2420 3725 c0 -20 5 -25 25 -25 20 0 25 5 25 25 0 20 -5 25 -25 25
-20 0 -25 -5 -25 -25z"/>
<path d="M1608 3483 c-26 -4 -28 -8 -28 -48 0 -24 3 -46 8 -48 4 -2 24 -2 45
1 l38 4 -3 47 c-3 48 -8 52 -60 44z"/>
<path d="M1880 3444 c0 -21 4 -25 23 -22 14 2 23 11 25 26 3 18 -1 22 -22 22
-21 0 -26 -5 -26 -26z"/>
<path d="M1157 3283 c-9 -8 -9 -51 0 -82 5 -21 10 -23 51 -17 25 3 47 8 49 10
3 2 1 25 -2 50 l-7 46 -42 0 c-24 0 -46 -3 -49 -7z"/>
<path d="M1450 3190 c0 -35 17 -45 56 -36 20 5 25 12 22 34 -3 23 -8 27 -40
30 -36 3 -38 2 -38 -28z"/>
<path d="M1660 3180 c0 -22 22 -35 44 -27 9 4 12 14 9 26 -7 29 -53 29 -53 1z"/>
<path d="M1120 3140 c-8 -5 -32 -10 -54 -10 l-39 0 5 -76 c3 -41 10 -80 16
-86 8 -8 32 -7 86 2 l76 13 -6 71 c-3 39 -7 77 -10 84 -4 14 -53 16 -74 2z"/>
<path d="M2995 3080 c-3 -6 1 -7 9 -4 18 7 21 14 7 14 -6 0 -13 -4 -16 -10z"/>
<path d="M2915 3048 c-16 -6 -32 -14 -35 -18 -3 -3 -21 -12 -40 -19 -19 -8
-55 -22 -80 -33 -25 -11 -58 -26 -75 -33 -16 -6 -50 -22 -75 -34 -25 -11 -49
-21 -54 -21 -5 0 -27 -9 -50 -19 -51 -24 -185 -82 -316 -136 -225 -93 -436
-198 -558 -277 -15 -10 -40 -25 -56 -34 -25 -14 -83 -53 -190 -128 -281 -197
-525 -491 -591 -711 -24 -79 -24 -211 0 -289 40 -133 148 -258 281 -326 38
-19 71 -37 74 -41 3 -3 30 -12 60 -19 30 -7 60 -16 65 -21 10 -8 43 -14 236
-44 110 -17 436 -20 539 -5 36 5 124 14 195 20 72 6 157 17 190 25 33 8 103
19 155 25 52 7 109 18 125 25 17 7 57 16 90 20 33 4 65 11 70 15 6 4 39 13 75
20 36 7 70 16 75 20 6 4 44 15 85 25 41 9 80 20 85 24 6 4 35 13 65 20 30 8
60 17 65 22 6 4 32 13 58 20 26 6 64 20 85 30 20 11 42 19 48 19 7 0 25 7 41
15 15 7 51 23 78 35 53 22 88 38 196 89 36 17 69 31 73 31 4 0 14 7 23 15 8 9
28 19 44 22 16 3 29 9 29 13 0 4 17 15 38 24 20 9 44 21 52 26 39 26 198 124
224 139 16 9 41 26 56 39 15 12 33 22 39 22 6 0 11 4 11 8 0 5 30 30 67 57
101 75 191 160 234 221 33 49 79 165 79 203 0 40 -54 145 -86 168 -75 53 -137
75 -219 76 -108 2 -160 -24 -240 -125 -6 -7 -26 -40 -44 -73 -54 -97 -169
-243 -266 -339 -84 -82 -271 -232 -340 -270 -16 -10 -52 -30 -80 -46 -79 -47
-318 -160 -337 -160 -5 0 -29 -9 -54 -20 -24 -11 -59 -23 -77 -27 -17 -3 -36
-9 -42 -13 -40 -30 -425 -121 -615 -145 -63 -9 -135 -20 -159 -26 -87 -20
-268 -31 -411 -26 -152 5 -305 35 -397 78 -24 10 -47 19 -53 19 -5 0 -10 3
-10 8 0 4 -15 13 -32 21 -34 14 -120 79 -127 94 -2 5 -12 17 -22 26 -11 8 -32
38 -47 66 -25 46 -27 59 -27 165 0 101 3 120 22 153 13 21 23 43 23 49 0 20
138 191 207 258 133 128 343 282 473 347 19 10 40 22 45 26 23 19 195 117 205
117 5 0 10 4 10 9 0 5 15 14 33 22 17 7 34 16 37 19 3 3 28 19 55 35 28 17 58
34 67 40 21 13 165 96 198 116 14 8 27 17 30 20 3 3 19 14 35 23 17 9 53 30
80 46 28 17 61 35 75 42 14 7 27 15 30 19 3 3 19 14 35 23 17 9 44 25 60 36
17 11 47 28 67 40 29 16 61 43 46 39 -2 0 -16 -5 -33 -11z"/>
<path d="M4235 3030 c-50 -10 -173 -47 -200 -59 -11 -5 -38 -15 -60 -21 -22
-6 -47 -14 -55 -17 -49 -18 -272 -96 -310 -108 -90 -28 -296 -99 -327 -112
-17 -7 -35 -13 -40 -13 -18 0 -91 -61 -116 -98 -29 -41 -35 -83 -14 -99 21
-17 80 -33 132 -35 59 -3 415 29 465 42 19 5 103 14 185 20 237 18 316 34 414
82 101 50 173 113 202 177 18 40 19 52 9 92 -6 25 -10 50 -8 55 8 28 -14 74
-41 89 -33 16 -163 19 -236 5z"/>
<path d="M780 2926 c0 -41 16 -56 53 -49 34 7 38 13 31 52 -6 28 -10 31 -45
31 -38 0 -39 -1 -39 -34z"/>
<path d="M520 2785 c0 -10 7 -15 18 -13 21 4 19 22 -2 26 -10 2 -16 -3 -16
-13z"/>
<path d="M500 2300 c0 -13 7 -20 20 -20 13 0 20 7 20 20 0 13 -7 20 -20 20
-13 0 -20 -7 -20 -20z"/>
</g>
</svg>
